<svg width="100" height="100" viewBox="0 0 100 100" fill="none" xmlns="http://www.w3.org/2000/svg">
<path d="M73.4851 36.8437C73.2066 33.5721 70.4506 32.4502 66.9613 32.1052L67.0022 27.5712L64.2969 27.546L64.2571 31.9605C63.5459 31.9539 62.8188 31.9614 62.0964 31.9693L62.137 27.5256L59.4331 27.5L59.3911 32.0327C58.8053 32.0394 58.23 32.0451 57.6691 32.0401L57.6689 32.0261L53.9376 31.9896L53.9116 34.9372C53.9116 34.9372 55.9097 34.9171 55.8762 34.9544C56.972 34.965 57.3227 35.6174 57.4214 36.1783L57.3749 41.3435C57.4505 41.3447 57.5491 41.3488 57.6606 41.3655C57.5705 41.3647 57.4741 41.3632 57.3749 41.3631L57.3086 48.599C57.2573 48.9504 57.0496 49.5094 56.284 49.5035C56.3183 49.5351 54.3174 49.4845 54.3174 49.4845L53.75 52.7753L57.2706 52.8083C57.9258 52.8153 58.5703 52.8327 59.2031 52.8428L59.1628 57.4284L61.8652 57.4543L61.9062 52.9172C62.648 52.9398 63.3661 52.9526 64.0671 52.9586L64.0251 57.4748L66.7304 57.5L66.7727 52.9225C71.3233 52.6992 74.5173 51.5603 74.952 47.2069C75.3029 43.7015 73.6993 42.1208 71.1232 41.464C72.6991 40.6641 73.6927 39.2377 73.4851 36.8437ZM69.6113 46.6131C69.5818 50.04 63.8334 49.596 61.9999 49.5805L62.0557 43.5049C63.8897 43.5226 69.6439 43.0389 69.6113 46.6131ZM68.4307 38.0294C68.4016 41.1471 63.608 40.7381 62.0807 40.7238L62.1308 35.2135C63.658 35.2277 68.4598 34.7775 68.4307 38.0294Z" fill="#94F0B4"/>
<path d="M98.4485 20H31.1521C30.2952 20 29.6007 20.6945 29.6007 21.5515V39.4174C25.2484 39.631 21.4365 39.973 19.4846 40.5825C14.9641 41.9958 1.56931 47.0756 1.00144 47.2914C0.200249 47.5956 -0.202761 48.4914 0.101464 49.2925C0.405689 50.0937 1.30022 50.4937 2.10202 50.1931C2.2402 50.1398 15.9774 44.9302 20.41 43.5448C23.6081 42.546 34.1836 42.3182 41.1822 42.1679C43.0912 42.1267 44.8384 42.0891 46.2784 42.043C46.4214 43.0066 46.4445 44.4963 45.6602 45.9011C44.5657 47.8598 42.1973 49.198 38.6192 49.8804C26.4941 52.1894 21.9942 55.7033 21.8088 55.8511C21.1427 56.3845 21.0354 57.3517 21.5639 58.0208C21.8694 58.4086 22.3233 58.6099 22.7821 58.6099C23.1172 58.6099 23.4548 58.502 23.739 58.2814C23.7648 58.2605 25.4757 56.9661 29.6007 55.4763V62.8994C29.6007 63.7564 30.2952 64.4509 31.1522 64.4509H60.8912C59.6388 65.2044 58.3063 66.0296 56.8988 66.9017C49.4596 71.5113 40.1992 77.276 34.3363 77.1306C28.0213 77.0045 23.1972 76.0215 17.6113 74.8821C13.1545 73.9731 8.10249 72.9428 1.70569 72.304C0.85116 72.2168 0.0924034 72.841 0.00815219 73.6943C-0.077303 74.5464 0.545111 75.3064 1.39781 75.3924C7.63704 76.0154 12.3927 76.9851 16.9913 77.9221C22.4869 79.0433 27.6777 80.1014 34.2745 80.2335C34.3533 80.2347 34.4315 80.2359 34.5109 80.2359C41.2707 80.2359 50.4359 74.5561 58.5332 69.5393C61.8394 67.4904 64.9607 65.5601 67.2886 64.4509H98.4485C99.3055 64.4509 100 63.7564 100 62.8994V21.5515C100 20.6945 99.3055 20 98.4485 20ZM96.897 30.4505L89.5498 23.1029H96.897V30.4505ZM40.0508 23.1029L32.7036 30.4505V23.1029H40.0508ZM32.7036 54.4735C34.5439 53.9376 36.6862 53.4064 39.1998 52.9276C43.7215 52.067 46.8063 50.2113 48.3693 47.4138C50.3856 43.8042 48.9965 40.0516 48.9365 39.894C48.6977 39.2686 48.082 38.8492 47.419 38.8953C45.816 38.9656 43.6045 39.0128 41.1155 39.0662C38.4265 39.1237 35.5197 39.1872 32.7036 39.2872V34.8384L44.4385 23.103H85.1622L96.897 34.8384V49.6416L85.1913 61.348H66.892C66.8882 61.348 66.8848 61.3478 66.881 61.348H32.7036V54.4735ZM89.5789 61.348L96.897 54.0295V61.348H89.5789Z" fill="url(#paint0_linear_1_102)"/>
<defs>
<linearGradient id="paint0_linear_1_102" x1="50" y1="20" x2="50" y2="80.2359" gradientUnits="userSpaceOnUse">
<stop stop-color="#252D3D"/>
<stop offset="1" stop-color="#252D3D" stop-opacity="0.1"/>
</linearGradient>
</defs>
</svg>
